<svg width="35" height="46" viewBox="0 0 351 465" fill="none" xmlns="http://www.w3.org/2000/svg">
<path d="M349.824 442.812L337.884 396.582C329.765 364.952 303.973 341.591 272.454 337.212L244.276 333.318L235.681 308.5C241.891 304.121 247.621 298.768 252.875 293.415C255.263 296.823 258.128 299.743 261.47 302.662C271.977 311.42 284.873 313.854 292.992 314.828C296.813 315.314 299.202 311.909 298.246 308.501C296.337 302.174 291.56 292.442 283.917 284.169C295.857 284.169 306.364 279.79 312.575 276.382C315.92 274.437 316.396 270.543 313.051 268.11C306.841 263.242 295.381 255.943 282.009 254.969H276.755C279.144 249.131 281.053 243.289 282.485 237.45C290.604 233.071 303.501 222.365 303.501 194.625C303.501 174.672 300.156 162.506 293.469 156.182C292.037 154.723 290.124 153.748 288.692 152.774C288.215 146.447 286.783 140.608 285.347 134.769C315.913 128.442 335.016 119.684 335.016 109.463C335.016 97.7828 309.227 87.5651 269.585 81.2379L263.855 39.3868C260.037 12.1357 232.813 -5.3842 207.023 2.8887L188.874 8.72734C180.279 11.6467 171.203 11.6467 162.605 8.72734L143.978 2.8887C118.19 -5.38376 90.9649 12.1357 87.1432 39.3868L81.413 81.2379C41.7722 87.5652 15.9827 97.7828 15.9827 109.463C15.9827 119.195 35.085 128.442 65.6514 134.769C64.2189 140.608 62.7863 146.449 62.3066 152.774C60.874 153.748 58.9618 154.234 58.0089 155.693C50.8463 162.506 47.5017 174.672 47.5017 194.625C47.5017 221.876 60.3978 233.068 68.517 237.451C75.2032 267.622 92.397 292.442 115.321 308.987L106.726 333.805L78.5483 337.698C46.5491 342.077 20.757 365.439 13.1179 397.068L1.17794 443.298C-0.2546 448.652 0.701538 453.52 4.04302 457.899C6.90811 461.792 11.6854 464.226 16.9391 464.226H334.065C339.319 464.226 344.097 462.281 346.962 457.899C349.823 453.031 351.256 447.677 349.823 442.814L349.824 442.812ZM175.5 144.015C203.201 144.015 229.47 142.555 252.394 139.636C252.87 144.503 253.35 149.857 253.826 154.721L196.035 159.588C189.349 160.074 182.186 160.563 175.5 160.563C168.813 160.563 161.651 160.077 154.965 159.588L97.1733 154.721C97.6497 149.853 98.1295 144.499 98.6059 139.636C121.53 142.555 147.799 144.015 175.5 144.015ZM66.1296 194.623C66.1296 182.943 67.5621 176.619 68.9947 173.21H71.8598C71.8598 176.618 74.2485 188.785 76.6371 188.785H89.5298C92.3949 188.785 94.3071 186.351 94.3071 183.431C94.3071 183.431 94.7835 178.564 95.2633 171.751L104.339 175.159C104.339 186.839 105.295 195.112 107.204 199.491C112.457 210.683 121.052 216.525 132.992 216.525C148.277 216.525 158.305 211.658 163.559 201.925C166.424 196.572 168.336 189.274 168.812 178.079C168.812 176.619 170.245 175.16 171.678 175.16H177.408C178.84 175.16 180.273 176.134 180.273 178.079C180.749 189.759 182.662 196.572 185.527 201.925C190.78 211.657 200.812 216.525 216.093 216.525C228.033 216.525 236.628 210.687 241.882 199.491C243.791 195.112 245.227 186.839 244.747 175.159L253.822 171.751C254.298 179.049 254.778 183.431 254.778 183.431C254.778 186.351 257.167 188.785 259.556 188.785H272.452C275.317 188.785 277.229 176.619 277.229 173.21H280.094C281.527 176.618 282.483 182.457 282.483 194.623C282.483 208.249 278.185 215.062 274.84 217.981C262.424 220.901 217.049 229.662 173.112 229.662C129.649 229.662 84.278 220.414 71.3828 217.981C70.43 215.062 66.1324 208.249 66.1324 194.623H66.1296ZM123.441 343.049L131.56 318.231C144.932 324.558 159.737 328.452 175.499 328.452C190.784 328.452 205.588 324.559 218.961 318.231L227.08 343.049C196.514 365.921 154.484 365.921 123.441 343.049Z" fill="black"/>
</svg>
